<?xml version="1.0" standalone="no"?>
<!DOCTYPE svg PUBLIC "-//W3C//DTD SVG 20010904//EN"
 "http://www.w3.org/TR/2001/REC-SVG-20010904/DTD/svg10.dtd">
<svg version="1.0" xmlns="http://www.w3.org/2000/svg"
 width="700.000000pt" height="700.000000pt" viewBox="0 0 700.000000 700.000000"
 preserveAspectRatio="xMidYMid meet">
<metadata>
Created by potrace 1.11, written by Peter Selinger 2001-2013
</metadata>
<g transform="translate(0.000000,700.000000) scale(0.100000,-0.100000)"
fill="#000000" stroke="none">
<path d="M3269 6989 c-485 -31 -1002 -180 -1424 -410 -799 -437 -1391 -1145
-1669 -1999 -328 -1007 -182 -2103 399 -2990 371 -567 899 -1015 1519 -1290
649 -287 1380 -368 2086 -229 1213 238 2234 1133 2629 2305 131 389 185 720
184 1134 -1 322 -31 568 -108 862 -298 1152 -1163 2075 -2295 2448 -294 97
-567 150 -885 170 -177 11 -250 11 -436 -1z m631 -424 c551 -73 1089 -302
1530 -653 141 -111 410 -387 520 -532 552 -727 759 -1636 574 -2513 -256
-1211 -1211 -2156 -2424 -2397 -229 -45 -334 -55 -600 -55 -266 0 -371 10
-600 55 -1261 251 -2240 1262 -2449 2530 -141 859 86 1733 631 2423 99 126
360 387 488 489 210 167 461 318 707 425 306 133 609 208 998 247 94 9 507 -3
625 -19z"/>
<path d="M3300 6174 c-474 -43 -894 -189 -1276 -445 -646 -432 -1067 -1099
-1181 -1874 -24 -167 -24 -543 0 -710 73 -493 275 -955 584 -1330 103 -126
290 -311 408 -405 386 -306 857 -504 1348 -565 139 -17 467 -20 602 -5 591 66
1139 324 1567 738 320 310 536 646 679 1060 166 479 187 1029 59 1528 -92 357
-277 721 -517 1019 -107 133 -334 352 -467 451 -376 281 -770 447 -1220 515
-127 19 -476 33 -586 23z m487 -419 c430 -56 844 -239 1184 -523 422 -353 711
-887 784 -1445 31 -245 15 -562 -42 -802 -44 -186 -139 -445 -164 -445 -23 0
-127 62 -156 93 -18 19 -35 52 -42 82 -29 120 -139 185 -255 151 -81 -24 -146
-107 -146 -188 0 -24 -64 -74 -145 -113 -272 -131 -722 -126 -986 12 -84 44
-109 70 -120 129 -19 103 -95 167 -199 167 -104 0 -180 -64 -199 -169 -11 -59
-44 -91 -146 -140 -115 -56 -248 -85 -415 -91 -228 -9 -407 23 -553 99 -86 45
-127 86 -127 127 0 44 -42 113 -87 145 -73 51 -176 46 -244 -11 -37 -31 -69
-92 -69 -132 0 -22 -10 -38 -40 -64 -50 -42 -169 -102 -180 -91 -14 16 -98
238 -124 329 -68 241 -90 418 -83 688 5 222 25 362 77 548 80 283 232 580 411
805 44 55 53 62 72 54 12 -5 69 -13 127 -19 186 -18 338 -81 441 -181 72 -71
108 -141 118 -234 9 -82 27 -123 70 -159 92 -77 244 -51 304 51 11 18 23 66
28 107 10 94 45 163 118 235 105 103 251 161 460 184 134 15 150 22 205 90 42
52 48 141 14 206 -49 91 -122 118 -283 102 -263 -26 -500 -125 -667 -280 l-47
-44 -67 57 c-117 100 -204 149 -363 205 l-104 37 34 26 c94 71 313 191 454
250 187 77 400 131 640 160 86 11 405 6 512 -8z m-1884 -3484 c172 -117 421
-187 707 -198 326 -12 618 53 817 182 37 25 71 45 74 45 3 0 37 -20 75 -45 82
-54 235 -115 359 -143 401 -92 882 -30 1148 148 l62 42 35 -21 c19 -12 65 -38
102 -59 37 -20 68 -39 68 -42 0 -15 -156 -198 -244 -286 -338 -337 -769 -558
-1246 -639 -131 -23 -460 -31 -601 -15 -557 61 -1092 337 -1449 745 -45 51
-99 116 -120 146 l-40 53 68 36 c37 19 81 45 97 57 38 28 39 28 88 -6z"/>
<path d="M3415 4093 c-98 -51 -141 -162 -100 -261 35 -83 93 -116 219 -126
199 -14 369 -81 474 -184 70 -69 100 -129 112 -230 13 -98 42 -145 113 -178
142 -66 273 15 292 181 24 213 233 369 540 404 55 7 115 14 133 16 129 16 200
183 127 300 -44 71 -95 95 -204 95 -254 0 -521 -94 -715 -251 l-87 -70 -54 49
c-184 169 -468 273 -738 272 -55 -1 -92 -6 -112 -17z"/>
</g>
</svg>
